<?xml version="1.0" encoding="utf-8"?>
<svg fill="var(--tg-theme-text-color)" version="1.1" xmlns="http://www.w3.org/2000/svg" viewBox="0 0 512 512" xml:space="preserve">
    <path fill-opacity="0.1" d="M214,512c-56,0-111,0-166,0-6,0-35,4-39,0,1,1,0-71,0-78,0-79,0-157,0-235,0-39-4-79,0-118,3-31,51-61,79-62,3,0,33,3,33,3,2-6-2-11,3-16,7-7,90,7,104,9,20,2,104,7,116,14,10,6,0,21,5,27,12,10,38-3,59,30,20,32-5,41,27,69,12,10,74,52,69,67-10,31-49,26-67,6-4-5-2-17-8-16-15,2-11,103-11,120,0,51,0,101,0,152,0,4,3,26,0,28-3,3-25,0-29,0-59,0-117,0-175,0z" />
</svg>